<?xml version="1.0" encoding="UTF-8" standalone="no"?>
<!-- Created with Inkscape (http://www.inkscape.org/) -->

<svg
   xmlns:dc="http://purl.org/dc/elements/1.1/"
   xmlns:cc="http://creativecommons.org/ns#"
   xmlns:rdf="http://www.w3.org/1999/02/22-rdf-syntax-ns#"
   xmlns:svg="http://www.w3.org/2000/svg"
   xmlns="http://www.w3.org/2000/svg"
   xmlns:sodipodi="http://sodipodi.sourceforge.net/DTD/sodipodi-0.dtd"
   xmlns:inkscape="http://www.inkscape.org/namespaces/inkscape"
   width="150"
   height="68"
   viewBox="0 0 39.687498 17.991668"
   version="1.1"
   id="svg8"
   inkscape:version="0.92.4 (5da689c313, 2019-01-14)"
   sodipodi:docname="logo.svg">
  <defs
     id="defs2" />
  <sodipodi:namedview
     id="base"
     pagecolor="#ffffff"
     bordercolor="#666666"
     borderopacity="1.0"
     inkscape:pageopacity="0.0"
     inkscape:pageshadow="2"
     inkscape:zoom="1.4"
     inkscape:cx="-130.32891"
     inkscape:cy="119.01833"
     inkscape:document-units="mm"
     inkscape:current-layer="layer1"
     showgrid="false"
     units="px"
     inkscape:window-width="1680"
     inkscape:window-height="997"
     inkscape:window-x="1912"
     inkscape:window-y="20"
     inkscape:window-maximized="1"
     fit-margin-top="0"
     fit-margin-left="0"
     fit-margin-right="0"
     fit-margin-bottom="0" />
  <metadata
     id="metadata5">
    <rdf:RDF>
      <cc:Work
         rdf:about="">
        <dc:format>image/svg+xml</dc:format>
        <dc:type
           rdf:resource="http://purl.org/dc/dcmitype/StillImage" />
        <dc:title></dc:title>
      </cc:Work>
    </rdf:RDF>
  </metadata>
  <g
     inkscape:label="Ebene 1"
     inkscape:groupmode="layer"
     id="layer1"
     transform="translate(-13.958974,-254.23259)">
    <g
       aria-label="{"
       style="font-style:normal;font-variant:normal;font-weight:normal;font-stretch:normal;font-size:16.93333244px;line-height:100%;font-family:Consolas;-inkscape-font-specification:Consolas;letter-spacing:0px;word-spacing:0px;fill:#000000;fill-opacity:1;stroke:none;stroke-width:0.26458332px;stroke-linecap:butt;stroke-linejoin:miter;stroke-opacity:1"
       id="text20"
       transform="matrix(0.73701093,0,0,0.73701093,15.203548,70.948228)" />
    <g
       id="g4683"
       transform="matrix(0.59265843,0,0,0.59265843,-6.3400063,127.35161)">
      <g
         id="g4660">
        <g
           id="g4582"
           transform="translate(15.619414,5.2043533)">
          <path
             d="m 37.731336,211.81291 h -3.199805 v 9.54981 H 33.04325 v -9.54981 h -3.199805 v -1.25677 h 7.887891 z"
             style="font-style:normal;font-variant:normal;font-weight:normal;font-stretch:normal;font-size:16.93333244px;line-height:100%;font-family:Consolas;-inkscape-font-specification:Consolas;letter-spacing:0px;word-spacing:0px;fill:#2f5597;fill-opacity:1;stroke:none;stroke-width:0.26458332px;stroke-linecap:butt;stroke-linejoin:miter;stroke-opacity:1"
             id="path4543"
             inkscape:connector-curvature="0" />
          <path
             d="m 47.165384,213.06142 -2.827734,7.42486 q -0.438216,1.13275 -0.909505,1.95131 -0.463021,0.81855 -1.016992,1.33945 -0.553971,0.52917 -1.21543,0.77721 -0.661458,0.24805 -1.480013,0.24805 -0.214974,0 -0.388606,-0.008 -0.173633,-0.008 -0.380339,-0.0248 v -1.30638 q 0.181901,0.0248 0.396875,0.0413 0.214974,0.0248 0.454753,0.0248 0.396875,0 0.735872,-0.11575 0.347266,-0.11576 0.65319,-0.38034 0.305924,-0.25632 0.587044,-0.66973 0.28112,-0.41341 0.545703,-1.00045 l -3.315559,-8.3013 h 1.637109 l 2.10013,5.4901 0.42168,1.28984 0.479557,-1.32291 1.943034,-5.45703 z"
             style="font-style:normal;font-variant:normal;font-weight:normal;font-stretch:normal;font-size:16.93333244px;line-height:100%;font-family:Consolas;-inkscape-font-specification:Consolas;letter-spacing:0px;word-spacing:0px;fill:#2f5597;fill-opacity:1;stroke:none;stroke-width:0.26458332px;stroke-linecap:butt;stroke-linejoin:miter;stroke-opacity:1"
             id="path4545"
             inkscape:connector-curvature="0" />
          <path
             d="m 56.202558,217.06324 q 0,1.10794 -0.314192,1.93476 -0.305925,0.82683 -0.851628,1.37253 -0.545703,0.5457 -1.289844,0.81855 -0.74414,0.27286 -1.612304,0.27286 -0.396875,0 -0.79375,-0.0413 -0.388607,-0.0413 -0.79375,-0.14056 v 3.47266 h -1.438672 v -11.69127 h 1.281576 l 0.09095,1.38906 q 0.620117,-0.85163 1.322917,-1.19063 0.702799,-0.34726 1.521354,-0.34726 0.711067,0 1.248502,0.29765 0.537435,0.29766 0.901237,0.84336 0.363802,0.53744 0.545703,1.30638 0.181901,0.76068 0.181901,1.70326 z m -1.471744,0.0661 q 0,-0.65319 -0.09922,-1.19889 -0.09095,-0.5457 -0.297656,-0.93431 -0.206706,-0.38861 -0.529167,-0.60358 -0.322461,-0.22324 -0.768945,-0.22324 -0.272852,0 -0.553972,0.0909 -0.281119,0.0827 -0.587044,0.28939 -0.297656,0.19843 -0.636653,0.53743 -0.33073,0.33073 -0.711068,0.82682 v 4.02663 q 0.396875,0.16537 0.835091,0.26458 0.438216,0.091 0.859896,0.091 1.16582,0 1.827278,-0.78549 0.661459,-0.79375 0.661459,-2.38125 z"
             style="font-style:normal;font-variant:normal;font-weight:normal;font-stretch:normal;font-size:16.93333244px;line-height:100%;font-family:Consolas;-inkscape-font-specification:Consolas;letter-spacing:0px;word-spacing:0px;fill:#2f5597;fill-opacity:1;stroke:none;stroke-width:0.26458332px;stroke-linecap:butt;stroke-linejoin:miter;stroke-opacity:1"
             id="path4547"
             inkscape:connector-curvature="0" />
          <path
             d="m 65.446439,216.77385 q 0,0.30592 -0.0083,0.51263 -0.0083,0.20671 -0.02481,0.38861 h -5.829101 q 0,1.2733 0.711067,1.95957 0.711068,0.67799 2.050521,0.67799 0.363802,0 0.727604,-0.0248 0.363802,-0.0331 0.7028,-0.0827 0.338997,-0.0496 0.644922,-0.10748 0.314192,-0.0661 0.578776,-0.14056 v 1.18235 q -0.587045,0.16537 -1.331185,0.26459 -0.735873,0.10748 -1.529623,0.10748 -1.066601,0 -1.835546,-0.28938 -0.768946,-0.28939 -1.265039,-0.83509 -0.487826,-0.55398 -0.727604,-1.34773 -0.231511,-0.80201 -0.231511,-1.81074 0,-0.87643 0.248047,-1.65364 0.256315,-0.78549 0.735872,-1.37253 0.487826,-0.59531 1.190625,-0.94258 0.7028,-0.34726 1.595768,-0.34726 0.868164,0 1.537891,0.27285 0.669726,0.27285 1.124479,0.77721 0.463021,0.4961 0.694531,1.21543 0.239779,0.71107 0.239779,1.59577 z m -1.496549,-0.20671 q 0.0248,-0.55397 -0.107487,-1.00872 -0.132292,-0.46302 -0.413412,-0.79375 -0.272851,-0.33073 -0.686263,-0.51263 -0.413411,-0.19017 -0.959114,-0.19017 -0.471289,0 -0.859896,0.1819 -0.388607,0.1819 -0.669727,0.51263 -0.281119,0.33073 -0.454752,0.79375 -0.173633,0.46302 -0.214974,1.01699 z"
             style="font-style:normal;font-variant:normal;font-weight:normal;font-stretch:normal;font-size:16.93333244px;line-height:100%;font-family:Consolas;-inkscape-font-specification:Consolas;letter-spacing:0px;word-spacing:0px;fill:#2f5597;fill-opacity:1;stroke:none;stroke-width:0.26458332px;stroke-linecap:butt;stroke-linejoin:miter;stroke-opacity:1"
             id="path4549"
             inkscape:connector-curvature="0" />
          <path
             d="m 67.339862,217.3857 q 0,-1.05833 0.289388,-1.87689 0.289388,-0.82682 0.818555,-1.38906 0.537435,-0.57051 1.281575,-0.8599 0.752409,-0.29765 1.670183,-0.29765 0.396875,0 0.777213,0.0496 0.388607,0.0496 0.760677,0.15709 v -3.48919 h 1.44694 v 11.68301 h -1.289844 l -0.04961,-1.57097 q -0.603581,0.87644 -1.30638,1.29812 -0.702799,0.42167 -1.521354,0.42167 -0.711068,0 -1.256771,-0.29765 -0.537435,-0.29766 -0.901237,-0.83509 -0.355534,-0.54571 -0.537435,-1.30638 -0.181901,-0.76068 -0.181901,-1.68672 z m 1.471745,-0.091 q 0,1.50482 0.438216,2.24896 0.446484,0.73587 1.256771,0.73587 0.545703,0 1.149284,-0.48783 0.611849,-0.48782 1.281575,-1.44694 v -3.85299 q -0.355534,-0.16537 -0.785482,-0.24805 -0.429948,-0.091 -0.851627,-0.091 -1.174089,0 -1.835547,0.76068 -0.65319,0.76068 -0.65319,2.38125 z"
             style="font-style:normal;font-variant:normal;font-weight:normal;font-stretch:normal;font-size:16.93333244px;line-height:100%;font-family:Consolas;-inkscape-font-specification:Consolas;letter-spacing:0px;word-spacing:0px;fill:#2f5597;fill-opacity:1;stroke:none;stroke-width:0.26458332px;stroke-linecap:butt;stroke-linejoin:miter;stroke-opacity:1"
             id="path4551"
             inkscape:connector-curvature="0" />
        </g>
        <g
           id="g4588"
           transform="translate(19.902356,5.2043533)">
          <path
             d="m 37.822286,238.29605 h -1.661914 l -1.612305,-3.45612 q -0.181901,-0.39688 -0.37207,-0.65319 -0.190169,-0.26458 -0.413411,-0.41341 -0.214974,-0.1571 -0.479558,-0.22324 -0.256315,-0.0662 -0.578776,-0.0662 h -0.694531 v 4.81211 h -1.471744 v -10.80658 h 2.89388 q 0.942578,0 1.620572,0.20671 0.677995,0.20671 1.107943,0.57878 0.438216,0.37207 0.636654,0.90123 0.206705,0.5209 0.206705,1.15755 0,0.50437 -0.148828,0.95912 -0.148828,0.44648 -0.446484,0.81855 -0.289388,0.36381 -0.727604,0.63666 -0.429948,0.26458 -0.992188,0.39687 0.454753,0.1571 0.768946,0.55397 0.322461,0.38861 0.65319,1.0418 z m -2.356445,-7.83828 q 0,-0.86817 -0.545703,-1.29811 -0.537435,-0.42995 -1.521354,-0.42995 h -1.389063 v 3.57187 h 1.190625 q 0.520899,0 0.93431,-0.11575 0.42168,-0.12403 0.711068,-0.35554 0.297656,-0.23977 0.454752,-0.57877 0.165365,-0.34727 0.165365,-0.79375 z"
             style="font-style:normal;font-variant:normal;font-weight:normal;font-stretch:normal;font-size:16.93333244px;line-height:100%;font-family:Consolas;-inkscape-font-specification:Consolas;letter-spacing:0px;word-spacing:0px;fill:#c55a11;fill-opacity:1;stroke:none;stroke-width:0.26458332px;stroke-linecap:butt;stroke-linejoin:miter;stroke-opacity:1"
             id="path4553"
             inkscape:connector-curvature="0" />
          <path
             d="m 46.793314,233.70718 q 0,0.30593 -0.0083,0.51263 -0.0083,0.20671 -0.02481,0.38861 H 40.93114 q 0,1.27331 0.711068,1.95957 0.711067,0.67799 2.05052,0.67799 0.363802,0 0.727604,-0.0248 0.363803,-0.0331 0.7028,-0.0827 0.338997,-0.0496 0.644922,-0.10749 0.314192,-0.0662 0.578776,-0.14056 v 1.18236 q -0.587044,0.16536 -1.331185,0.26458 -0.735872,0.10749 -1.529622,0.10749 -1.066602,0 -1.835547,-0.28939 -0.768945,-0.28939 -1.265039,-0.83509 -0.487826,-0.55397 -0.727604,-1.34772 -0.231511,-0.80202 -0.231511,-1.81075 0,-0.87643 0.248047,-1.65364 0.256315,-0.78548 0.735873,-1.37253 0.487825,-0.59531 1.190624,-0.94258 0.7028,-0.34726 1.595769,-0.34726 0.868164,0 1.53789,0.27285 0.669727,0.27285 1.124479,0.77721 0.463021,0.4961 0.694531,1.21543 0.239779,0.71107 0.239779,1.59577 z m -1.496549,-0.2067 q 0.0248,-0.55397 -0.107487,-1.00873 -0.132292,-0.46302 -0.413412,-0.79375 -0.272851,-0.33073 -0.686263,-0.51263 -0.413411,-0.19017 -0.959114,-0.19017 -0.471289,0 -0.859896,0.1819 -0.388607,0.18191 -0.669727,0.51263 -0.281119,0.33073 -0.454752,0.79375 -0.173633,0.46303 -0.214974,1.017 z"
             style="font-style:normal;font-variant:normal;font-weight:normal;font-stretch:normal;font-size:16.93333244px;line-height:100%;font-family:Consolas;-inkscape-font-specification:Consolas;letter-spacing:0px;word-spacing:0px;fill:#c55a11;fill-opacity:1;stroke:none;stroke-width:0.26458332px;stroke-linecap:butt;stroke-linejoin:miter;stroke-opacity:1"
             id="path4555"
             inkscape:connector-curvature="0" />
          <path
             d="m 55.68166,236.03055 q 0,0.43822 -0.148828,0.78549 -0.148828,0.34726 -0.405143,0.62011 -0.256315,0.26459 -0.595313,0.45476 -0.338997,0.19017 -0.727604,0.31419 -0.380339,0.12402 -0.785482,0.1819 -0.405143,0.0579 -0.79375,0.0579 -0.843359,0 -1.554427,-0.0744 -0.702799,-0.0744 -1.380794,-0.23978 v -1.32291 q 0.727604,0.2067 1.44694,0.31419 0.719336,0.10749 1.430404,0.10749 1.033528,0 1.529622,-0.28112 0.496094,-0.28112 0.496094,-0.80202 0,-0.22324 -0.08268,-0.39688 -0.07441,-0.1819 -0.281119,-0.33899 -0.206706,-0.16537 -0.644922,-0.339 -0.429948,-0.17363 -1.182357,-0.39688 -0.562239,-0.16536 -1.041797,-0.37207 -0.471289,-0.21497 -0.818554,-0.50436 -0.347266,-0.28939 -0.545703,-0.67799 -0.198438,-0.38861 -0.198438,-0.91778 0,-0.34726 0.157096,-0.76067 0.165365,-0.41341 0.553972,-0.76895 0.388607,-0.35553 1.050065,-0.58704 0.661458,-0.23978 1.653646,-0.23978 0.487825,0 1.083138,0.0579 0.595312,0.0496 1.240234,0.1819 v 1.28157 q -0.677995,-0.16536 -1.289844,-0.23978 -0.603581,-0.0827 -1.050065,-0.0827 -0.537435,0 -0.909505,0.0827 -0.363802,0.0827 -0.595313,0.23152 -0.223242,0.14056 -0.32246,0.33899 -0.09922,0.19017 -0.09922,0.41341 0,0.22325 0.08268,0.40515 0.09095,0.1819 0.322461,0.35553 0.239779,0.16537 0.661458,0.339 0.42168,0.16536 1.099675,0.3638 0.735872,0.21497 1.240234,0.45475 0.504362,0.23151 0.818555,0.5209 0.314192,0.28939 0.446484,0.65319 0.14056,0.3638 0.14056,0.82682 z"
             style="font-style:normal;font-variant:normal;font-weight:normal;font-stretch:normal;font-size:16.93333244px;line-height:100%;font-family:Consolas;-inkscape-font-specification:Consolas;letter-spacing:0px;word-spacing:0px;fill:#c55a11;fill-opacity:1;stroke:none;stroke-width:0.26458332px;stroke-linecap:butt;stroke-linejoin:miter;stroke-opacity:1"
             id="path4557"
             inkscape:connector-curvature="0" />
          <path
             d="m 65.123978,238.18029 q -0.487825,0.12403 -1.008724,0.17364 -0.520898,0.0579 -1.058333,0.0579 -1.562695,0 -2.331641,-0.7028 -0.768945,-0.71106 -0.768945,-2.17454 v -4.33255 h -2.323372 v -1.20716 h 2.323372 v -2.28203 l 1.438672,-0.37207 v 2.6541 h 3.728971 v 1.20716 h -3.728971 v 4.2168 q 0,0.89296 0.471289,1.33945 0.479557,0.43821 1.405599,0.43821 0.396875,0 0.868164,-0.0579 0.471289,-0.0661 0.983919,-0.19844 z"
             style="font-style:normal;font-variant:normal;font-weight:normal;font-stretch:normal;font-size:16.93333244px;line-height:100%;font-family:Consolas;-inkscape-font-specification:Consolas;letter-spacing:0px;word-spacing:0px;fill:#c55a11;fill-opacity:1;stroke:none;stroke-width:0.26458332px;stroke-linecap:butt;stroke-linejoin:miter;stroke-opacity:1"
             id="path4559"
             inkscape:connector-curvature="0" />
        </g>
      </g>
      <g
         id="g4665">
        <path
           d="m 43.795077,238.81872 h -0.760876 q -1.984446,0 -2.950964,-0.93568 -0.966517,-0.92539 -0.966517,-2.81729 v -3.53704 q 0,-0.50383 -0.113102,-0.89455 -0.113103,-0.401 -0.401001,-0.66833 -0.277618,-0.27762 -0.750594,-0.42157 -0.462694,-0.14395 -1.17216,-0.14395 h -0.44213 v -1.42921 h 0.44213 q 0.750593,0 1.22357,-0.12336 0.472978,-0.12336 0.740311,-0.37016 0.267335,-0.25705 0.370157,-0.64777 0.102818,-0.39072 0.102818,-0.92538 v -2.43686 q 0,-0.86371 0.205642,-1.55261 0.205642,-0.69918 0.668336,-1.18243 0.472977,-0.49355 1.213288,-0.7506 0.750594,-0.26734 1.830215,-0.26734 h 0.760876 v 1.43949 h -0.606644 q -2.385449,0 -2.385449,2.31349 v 2.39572 q 0,2.50883 -2.169523,2.82759 2.190088,0.21592 2.190088,2.81729 v 3.51647 q 0,2.35461 2.364884,2.35461 h 0.606644 z"
           style="font-style:normal;font-variant:normal;font-weight:normal;font-stretch:normal;font-size:16.93333244px;line-height:100%;font-family:Consolas;-inkscape-font-specification:Consolas;letter-spacing:0px;word-spacing:0px;fill:#7f7f7f;fill-opacity:1;stroke:none;stroke-width:0.3290273px;stroke-linecap:butt;stroke-linejoin:miter;stroke-opacity:1"
           id="path4571"
           inkscape:connector-curvature="0" />
        <g
           aria-label="{"
           style="font-style:normal;font-variant:normal;font-weight:normal;font-stretch:normal;font-size:16.93333244px;line-height:100%;font-family:Consolas;-inkscape-font-specification:Consolas;letter-spacing:0px;word-spacing:0px;fill:#000000;fill-opacity:1;stroke:none;stroke-width:0.26458332px;stroke-linecap:butt;stroke-linejoin:miter;stroke-opacity:1"
           id="text20-9"
           transform="matrix(-1.2435678,0,0,1.2435678,117.84539,-56.297769)">
          <path
             d="m 21.047347,237.31435 h -0.611849 q -1.595768,0 -2.372982,-0.75241 -0.777213,-0.74414 -0.777213,-2.26549 v -2.84427 q 0,-0.40515 -0.09095,-0.71934 -0.09095,-0.32246 -0.32246,-0.53743 -0.223243,-0.22325 -0.603581,-0.339 -0.37207,-0.11576 -0.942578,-0.11576 H 14.9702 v -1.14928 h 0.355534 q 0.60358,0 0.983919,-0.0992 0.380339,-0.0992 0.595312,-0.29766 0.214974,-0.2067 0.297657,-0.52089 0.08268,-0.3142 0.08268,-0.74414 v -1.95957 q 0,-0.69454 0.165365,-1.24851 0.165364,-0.56224 0.537434,-0.95084 0.380339,-0.39688 0.975651,-0.60358 0.603581,-0.21498 1.471745,-0.21498 h 0.611849 v 1.15755 h -0.487825 q -1.91823,0 -1.91823,1.86036 v 1.92649 q 0,2.01745 -1.744596,2.27377 1.761133,0.17363 1.761133,2.26549 v 2.82773 q 0,1.89343 1.901693,1.89343 h 0.487825 z"
             style="fill:#7f7f7f;fill-opacity:1;stroke-width:0.26458332px"
             id="path4571-5"
             inkscape:connector-curvature="0" />
        </g>
      </g>
    </g>
  </g>
</svg>
